<svg width="25" height="25" viewBox="0 0 25 25" fill="none" xmlns="http://www.w3.org/2000/svg">
<path d="M24.4792 9.37499C23.4926 9.37499 22.5904 9.4392 21.7464 9.55521C21.5142 7.81219 20.9369 6.08949 19.99 4.42909C19.8669 4.21293 19.6045 4.11322 19.3726 4.19359C17.9571 4.66527 16.6582 5.32972 15.4885 6.15184C14.7622 5.10619 13.885 4.12177 12.8336 3.2455C12.6404 3.08475 12.3596 3.08475 12.1663 3.2455C11.1149 4.12181 10.2378 5.10619 9.51147 6.15184C8.34175 5.32963 7.04287 4.66527 5.62739 4.19359C5.39341 4.11376 5.13301 4.21342 5.00991 4.42909C4.06299 6.08983 3.48569 7.81229 3.25352 9.55516C2.40947 9.43915 1.50732 9.37499 0.52085 9.37499C0.232959 9.37499 0 9.60795 0 9.89584C0 13.5468 1.08643 16.4078 3.32134 18.6427C5.4667 20.7875 8.55508 21.875 12.5 21.875C16.4449 21.875 19.5333 20.7875 21.6787 18.6427C23.9136 16.4078 25 13.5468 25 9.89584C25 9.60795 24.767 9.37499 24.4792 9.37499ZM19.2942 5.3243C20.0603 6.76088 20.5295 8.24012 20.7229 9.73187C19.5237 9.98373 18.4618 10.3695 17.515 10.9081C17.2688 9.56488 16.772 8.25775 16.0519 7.02562C17.0343 6.33002 18.1178 5.75438 19.2942 5.3243ZM5.70576 5.3243C6.88223 5.75443 7.96572 6.33007 8.94814 7.02557C8.22808 8.2577 7.73125 9.56488 7.48506 10.9081C6.53814 10.3695 5.47632 9.98358 4.27695 9.73177C4.47036 8.24042 4.9396 6.76107 5.70576 5.3243ZM4.05781 17.9062C2.10771 15.9556 1.14438 13.5676 1.0498 10.4228C3.69141 10.4822 5.70132 11.0037 7.32637 12.0332C7.28916 12.5064 7.28149 12.9818 7.30693 13.4578C7.45913 16.3019 8.72627 18.8379 10.8935 20.7573C8.004 20.5037 5.70513 19.5531 4.05781 17.9062ZM12.5 20.7219C9.97519 18.926 8.50425 16.3391 8.34653 13.4017C8.17158 10.1115 9.68018 6.82831 12.5 4.33246C15.3198 6.82831 16.8284 10.1115 16.6535 13.4018C16.4958 16.3391 15.0248 18.926 12.5 20.7219ZM20.9422 17.9062C19.2949 19.5531 16.996 20.5037 14.1065 20.7572C16.2737 18.8378 17.5409 16.3019 17.6931 13.4577C17.7185 12.9818 17.7108 12.5063 17.6736 12.0332C19.2987 11.0036 21.3086 10.4822 23.9502 10.4227C23.8556 13.5676 22.8922 15.9556 20.9422 17.9062Z" fill="white"/>
</svg>
