<svg width="80" height="80" viewBox="0 0 80 80" fill="none" xmlns="http://www.w3.org/2000/svg">
<g opacity="0.3">
<path d="M80.0001 40.0046C80.0001 62.0908 62.0929 80 40 80V40.0046H80.0001Z" fill="#737CE0"/>
<path d="M0 40.0046C0 62.0908 17.9072 80 40 80V40.0046H0Z" fill="#737CE0"/>
<path d="M80.0001 40.0044H40V0C62.0929 0 80.0001 17.9092 80.0001 40.0044Z" fill="#737CE0"/>
<path d="M0 40.0044H40V0C17.9072 0 0 17.9092 0 40.0044Z" fill="#737CE0"/>
</g>
<path d="M72.2501 40.0037C72.2501 57.8108 57.8123 72.2502 39.9999 72.2502V40.0037H72.2501Z" fill="#737CE0"/>
<path d="M7.99972 40.0037C7.99972 57.8108 22.4375 72.2502 40.2499 72.2502V40.0037H7.99972Z" fill="#737CE0"/>
<path d="M72.2506 40.0029H40.0003V7.7491C57.8128 7.7491 72.2506 22.1885 72.2506 40.0029Z" fill="#737CE0"/>
<path d="M40.2536 7.75058L40.2536 40.0008L7.99986 40.0008C7.99985 22.1884 22.4392 7.75058 40.2536 7.75058Z" fill="#737CE0"/>
<rect x="32.6714" y="30.8593" width="5.00302" height="18.281" rx="2.50151" fill="white"/>
<rect x="42.3262" y="30.8595" width="5.00302" height="18.281" rx="2.50151" fill="white"/>
</svg>
