<svg width="26" height="26" viewBox="0 0 26 26" fill="none" xmlns="http://www.w3.org/2000/svg">
<path d="M22.5211 15.2384C22.2165 15.0021 21.7872 14.9975 21.4773 15.2276C20.1101 16.243 18.4761 16.7797 16.7518 16.7797C16.2826 16.7797 15.8122 16.7386 15.3538 16.6576C15.171 16.6252 15.0084 16.6234 14.3101 16.3989C14.292 16.4957 13.864 16.8076 14.0989 17.0199C14.6821 17.2069 15.1504 17.2864 15.2336 17.3011C15.7316 17.389 16.2424 17.4336 16.7518 17.4336C18.625 17.4336 20.4002 16.8505 21.8855 15.7473C21.9496 15.6997 22.0384 15.7006 22.1015 15.7495C22.1645 15.7984 22.185 15.8824 22.1515 15.9537C21.4192 17.5105 20.2516 18.8306 18.7751 19.7712C17.2598 20.7364 15.4971 21.2467 13.6777 21.2467C8.54223 21.2467 4.36416 17.1847 4.36416 12.1918C4.36416 10.4229 4.88898 8.70918 5.88184 7.23605C6.84931 5.80048 8.20707 4.66538 9.8085 3.95333C9.88178 3.92069 9.96796 3.94074 10.0183 4.00205C10.0685 4.06333 10.0696 4.14966 10.0206 4.21194C8.88588 5.65621 8.2861 7.38212 8.2861 9.20314C8.2861 10.9667 8.85385 12.6494 9.92802 14.0694C10.9802 15.4605 12.4225 16.4807 14.0989 17.0199C14.2753 17.0765 14.4654 16.9835 14.5238 16.8121C14.5821 16.6406 14.4865 16.4556 14.3101 16.3989C11.1093 15.3696 8.95878 12.4779 8.95878 9.20318C8.95878 7.52685 9.51082 5.93819 10.5552 4.60892C10.7919 4.30767 10.7872 3.89037 10.544 3.59409C10.3006 3.29762 9.88282 3.20102 9.52856 3.35871C7.81187 4.12199 6.35626 5.33886 5.3192 6.8776C4.25432 8.45752 3.69149 10.2952 3.69149 12.1918C3.69149 17.5453 8.17135 21.9007 13.6777 21.9007C15.6284 21.9007 17.5186 21.3535 19.1438 20.3182C20.7264 19.3099 21.9781 17.8948 22.7633 16.2257C22.9254 15.881 22.8259 15.475 22.5211 15.2384Z" fill="white"/>
</svg>
