<svg width="26" height="26" viewBox="0 0 26 26" fill="none" xmlns="http://www.w3.org/2000/svg">
<path d="M21.4773 15.2276C21.7872 14.9975 22.2165 15.0021 22.5211 15.2384C22.8259 15.475 22.9254 15.881 22.7633 16.2257C21.9781 17.8948 20.7264 19.3099 19.1438 20.3182C17.5186 21.3535 15.6284 21.9007 13.6777 21.9007C8.17135 21.9007 3.69149 17.5453 3.69149 12.1918C3.69149 10.2952 4.25432 8.45752 5.3192 6.8776C6.35626 5.33886 7.81187 4.12199 9.52856 3.35871C9.88282 3.20102 10.3006 3.29762 10.544 3.59409C10.7872 3.89037 10.7919 4.30767 10.5552 4.60892C9.51082 5.93819 8.95878 7.52685 8.95878 9.20318C8.95878 12.4779 11.1093 15.3696 14.3101 16.3989C15.0084 16.6234 15.171 16.6252 15.3538 16.6576C15.8122 16.7386 16.2826 16.7797 16.7518 16.7797C18.4761 16.7797 20.1101 16.243 21.4773 15.2276Z" fill="white"/>
</svg>
