<svg width="25" height="25" viewBox="0 0 25 25" fill="none" xmlns="http://www.w3.org/2000/svg">
<path d="M24.4792 9.37496C22.3643 9.37496 20.5942 9.64605 19.0668 10.203C18.8598 10.2783 18.723 10.4761 18.7246 10.6963L18.7312 10.9741C18.7362 11.1262 18.7418 11.2777 18.7332 11.4298C18.6235 13.4844 17.9436 15.4245 16.8163 17.1187C17.3235 15.9802 17.6241 14.7507 17.6931 13.4577C17.8935 9.7086 16.1219 5.98648 12.8336 3.24547C12.6404 3.08472 12.3596 3.08472 12.1663 3.24547C8.87803 5.98643 7.10649 9.7086 7.30688 13.4577C7.37588 14.7507 7.67646 15.9802 8.18364 17.1187C7.0564 15.4245 6.37651 13.4844 6.26675 11.4298C6.25811 11.2777 6.26367 11.1261 6.2688 10.9741L6.27539 10.6963C6.2769 10.4761 6.14009 10.2782 5.93311 10.203C4.40571 9.64605 2.63569 9.37496 0.52085 9.37496C0.232959 9.37496 0 9.60792 0 9.89581C0 13.5467 1.08643 16.4078 3.32183 18.6426C5.46621 20.7875 8.5541 21.875 12.5 21.875C16.4459 21.875 19.5338 20.7875 21.6782 18.6426C23.9136 16.4077 25 13.5467 25 9.89581C25 9.60792 24.767 9.37496 24.4792 9.37496Z" fill="white"/>
<path d="M18.0186 8.77632C18.0613 8.89634 18.1457 8.99654 18.2576 9.05811L18.398 9.13541C18.4753 9.17813 18.5628 9.20001 18.6493 9.20001C18.7073 9.20001 18.7663 9.19034 18.8222 9.17051C19.4885 8.9355 20.2271 8.74683 21.0155 8.60948C21.1589 8.58458 21.2861 8.5001 21.3644 8.37754C21.4427 8.25499 21.4671 8.1044 21.4295 7.96353C21.1009 6.71793 20.6167 5.52872 19.9901 4.4296C19.867 4.2129 19.6045 4.11324 19.3726 4.19361C18.5191 4.47794 17.6738 4.84771 16.861 5.29224C16.7348 5.36143 16.6423 5.47994 16.6067 5.61929C16.5711 5.75919 16.5945 5.90767 16.6718 6.02925C17.2261 6.89693 17.6788 7.82164 18.0186 8.77632Z" fill="white"/>
<path d="M3.9846 8.60947C4.77401 8.74682 5.51151 8.93549 6.17679 9.1705C6.23275 9.19032 6.29173 9.19999 6.34974 9.19999C6.43621 9.19999 6.52269 9.17812 6.60101 9.13539L6.74242 9.05756C6.85433 8.99604 6.93875 8.89633 6.98148 8.77631C7.32225 7.82162 7.77493 6.89745 8.3283 6.0287C8.4056 5.90712 8.42904 5.75912 8.39339 5.61928C8.3578 5.47992 8.26522 5.36142 8.13909 5.29223C7.3263 4.8477 6.48099 4.47792 5.62748 4.1936C5.39349 4.11376 5.13309 4.21293 5.00999 4.42958C4.38031 5.53281 3.89608 6.72197 3.57059 7.96401C3.53294 8.10488 3.55736 8.25492 3.63568 8.37753C3.71502 8.50009 3.84115 8.58456 3.9846 8.60947Z" fill="white"/>
</svg>
