<svg width="26" height="26" viewBox="0 0 26 26" fill="none" xmlns="http://www.w3.org/2000/svg">
<path d="M19.4913 10.512C18.853 10.3584 18.1901 10.5913 17.8025 11.1056L15.4221 14.2637V12.0264V8.63181V5.23723C15.4221 4.40536 14.7226 3.72852 13.8629 3.72852C13.5787 3.72852 13.313 3.80367 13.0833 3.93267V3.72852C13.0833 2.89666 12.3838 2.21982 11.5241 2.21982C10.7227 2.21982 10.0612 2.80793 9.975 3.56143C9.74307 3.42886 9.47362 3.35135 9.18527 3.35135C8.32556 3.35135 7.62605 4.02819 7.62605 4.86005V5.0642C7.39636 4.9352 7.13062 4.86005 6.84645 4.86005C5.98674 4.86005 5.28724 5.53689 5.28724 6.36876V19.5988C5.28724 21.4547 6.85473 22.9645 8.78133 22.9645H12.4978C14.3065 22.9645 15.9777 21.9484 16.7554 20.3759L20.5544 12.6956C20.7641 12.2717 20.7656 11.7847 20.5586 11.3595C20.3516 10.9344 19.9626 10.6255 19.4913 10.512ZM19.8512 12.3699L16.0522 20.0503C15.4033 21.3624 14.0081 22.2101 12.4978 22.2101H8.78133C7.28459 22.2101 6.06684 21.0386 6.06684 19.5988V6.36876C6.06684 5.95282 6.41659 5.6144 6.84645 5.6144C7.2763 5.6144 7.62605 5.95282 7.62605 6.36876V10.5177C7.62605 10.726 7.80059 10.8949 8.01586 10.8949C8.23113 10.8949 8.40566 10.726 8.40566 10.5177V6.36876V4.86005C8.40566 4.44412 8.75541 4.1057 9.18527 4.1057C9.61512 4.1057 9.96487 4.44412 9.96487 4.86005V10.5177C9.96487 10.726 10.1394 10.8949 10.3547 10.8949C10.5699 10.8949 10.7445 10.726 10.7445 10.5177V4.86005V3.72852C10.7445 3.31259 11.0942 2.97417 11.5241 2.97417C11.9539 2.97417 12.3037 3.31259 12.3037 3.72852V5.23723V11.272C12.3037 11.4803 12.4782 11.6492 12.6935 11.6492C12.9088 11.6492 13.0833 11.4803 13.0833 11.272V5.23723C13.0833 4.8213 13.433 4.48287 13.8629 4.48287C14.2928 4.48287 14.6425 4.8213 14.6425 5.23723V15.421C14.6425 15.5842 14.7511 15.729 14.9116 15.7796C15.072 15.83 15.248 15.7751 15.3473 15.6432L18.4324 11.5501C18.6321 11.2851 18.9742 11.1647 19.3031 11.244C19.5461 11.3025 19.7468 11.4618 19.8535 11.681C19.9602 11.9002 19.9594 12.1513 19.8512 12.3699Z" fill="white"/>
<path d="M11.6878 13.922C11.28 13.922 10.8949 14.0817 10.6064 14.3568C10.3179 14.0817 9.9328 13.922 9.52497 13.922C8.65471 13.922 7.94681 14.63 7.94681 15.5001C7.94681 16.0559 8.63177 17.0033 9.89566 18.5573C10.0801 18.7841 10.2395 18.98 10.3325 19.1042C10.3972 19.1904 10.4986 19.2411 10.6064 19.2411C10.7141 19.2411 10.8156 19.1904 10.8803 19.1042C10.9734 18.98 11.1327 18.7842 11.3171 18.5573C12.581 17.0033 13.266 16.0558 13.266 15.5001C13.266 14.63 12.5581 13.922 11.6878 13.922ZM10.7859 18.1254C10.7227 18.2031 10.6624 18.2772 10.6063 18.3465C10.5502 18.2772 10.49 18.2031 10.4267 18.1254C9.93571 17.5216 8.63134 15.9179 8.63134 15.5002C8.63134 15.0076 9.03224 14.6068 9.5248 14.6068C9.8485 14.6068 10.1476 14.787 10.3055 15.0772C10.3654 15.1873 10.4807 15.2559 10.6062 15.2559C10.7317 15.2559 10.847 15.1873 10.907 15.0772C11.0648 14.787 11.3639 14.6068 11.6876 14.6068C12.1803 14.6068 12.5811 15.0076 12.5811 15.5002C12.5812 15.9179 11.277 17.5216 10.7859 18.1254Z" fill="white"/>
</svg>
