<svg width="26" height="26" viewBox="0 0 26 26" fill="none" xmlns="http://www.w3.org/2000/svg">
<path d="M23.1053 11.3343L13.9159 2.4618C13.6482 2.20085 13.2212 2.20085 12.9535 2.4618L3.76439 11.3339C3.62911 11.4645 3.55272 11.6444 3.55272 11.8324C3.55272 12.2151 3.86295 12.5253 4.24558 12.5253H5.46676V22.2254C5.46676 22.6081 5.77694 22.9183 6.15962 22.9183H11.0097C11.3923 22.9183 11.7025 22.6081 11.7025 22.2254V16.6825H15.1668V22.2254C15.1668 22.6081 15.477 22.9183 15.8597 22.9183H20.7098C21.0924 22.9183 21.4026 22.6081 21.4026 22.2254V12.5253H22.6238C22.8116 12.5253 22.9914 12.449 23.122 12.314C23.3879 12.0388 23.3804 11.6002 23.1053 11.3343ZM21.4026 11.8324C21.0199 11.8324 20.7098 12.1426 20.7098 12.5253V22.2254H15.8597V16.6825C15.8597 16.2998 15.5495 15.9896 15.1668 15.9896H11.7025C11.3199 15.9896 11.0097 16.2998 11.0097 16.6825V22.2254H6.15962V12.5253C6.15962 12.1426 5.84943 11.8324 5.46676 11.8324H4.24558L13.4347 2.96031L22.6273 11.8324H21.4026Z" fill="white"/>
</svg>
