<svg width="25" height="26" viewBox="0 0 25 26" fill="none" xmlns="http://www.w3.org/2000/svg">
<path fill-rule="evenodd" clip-rule="evenodd" d="M16.8262 11.1056C17.2138 10.5913 17.8767 10.3584 18.515 10.512C18.9863 10.6255 19.3754 10.9344 19.5823 11.3595C19.7893 11.7847 19.7878 12.2717 19.5782 12.6956L15.7791 20.3759C15.0014 21.9484 13.3302 22.9645 11.5215 22.9645H7.80505C5.87845 22.9645 4.31095 21.4547 4.31095 19.5988V6.36876C4.31095 5.53689 5.01045 4.86005 5.87016 4.86005C6.15433 4.86005 6.42007 4.9352 6.64977 5.0642V4.86005C6.64977 4.02819 7.34927 3.35135 8.20898 3.35135C8.49733 3.35135 8.76678 3.42886 8.99872 3.56143C9.08496 2.80793 9.74646 2.21982 10.5478 2.21982C11.4075 2.21982 12.107 2.89666 12.107 3.72852V3.93267C12.3367 3.80367 12.6024 3.72852 12.8866 3.72852C13.7463 3.72852 14.4458 4.40536 14.4458 5.23723V8.63181V12.0264V14.2637L16.8262 11.1056ZM10.6967 13.922C10.2889 13.922 9.90383 14.0817 9.61531 14.3568C9.32679 14.0817 8.94173 13.922 8.5339 13.922C7.66364 13.922 6.95573 14.63 6.95573 15.5001C6.95573 16.0559 7.6407 17.0033 8.90458 18.5574C9.08903 18.7841 9.24839 18.98 9.34143 19.1042C9.40613 19.1904 9.50755 19.2411 9.61531 19.2411C9.72307 19.2411 9.82449 19.1904 9.88919 19.1042C9.98194 18.9805 10.1403 18.7857 10.3238 18.5601L10.326 18.5574C11.5899 17.0033 12.2749 16.0558 12.2749 15.5001C12.2749 14.63 11.567 13.922 10.6967 13.922Z" fill="white"/>
</svg>
